# File produced by Open Asset Import Library (http://www.assimp.sf.net)
# (assimp v3.1.187496374)

mtllib Base.obj.mtl

# 185 vertex positions
v  0.0614073 0 0.0710122
v  0.0107041 0.0290448 0.0919913
v  0.0101903 0.00837344 0.0920015
v  0.02183 0.0379999 0.0754429
v  0.00950617 0.0299354 0.0917591
v  -0.0559986 0 -0.0722786
v  -0.00221407 0.0363979 -0.0750876
v  -0.00294936 0 -0.074942
v  0.074942 0 0.00294936
v  0.074942 0 -0.00294936
v  0.0749865 0.0379999 -0.00142002
v  0.0722786 0 -0.0559986
v  0.0722259 0.012 -0.056594
v  0.0718605 0 -0.0587534
v  0.0722786 0.012 0.0559986
v  0.0743943 0.0379999 0.00950783
v  0.0718605 0.012 0.0587534
v  0.0587534 0 0.0718605
v  0.0614073 0.012 0.0710122
v  -0.0199354 0.0379999 0.076
v  0.0199354 0.0379999 0.076
v  -0.0100442 0.0297044 0.0919948
v  -0.0209228 0.0379999 0.0758578
v  0.0430345 0.0379999 0.0614249
v  0.0661509 0.012 0.0681212
v  0.046976 0.0379999 0.0584654
v  0.0209228 0.0379999 0.0758578
v  0.00131339 0.0316107 -0.0750914
v  0.00294936 0 -0.074942
v  0.0697552 0 -0.0638941
v  0.0706088 0.012 -0.062318
v  0.0710122 0 -0.0614073
v  0.0716613 0.012 -0.0595249
v  0.073134 0.0379999 -0.0166237
v  0.0671751 0.012 -0.0671751
v  0.0661509 0 -0.0681212
v  0.0648929 0.012 -0.0690989
v  -0.0722259 0.012 0.056594
v  -0.0746834 0.0379999 0.00688088
v  -0.0749744 0.0379999 0.00195688
v  -0.0722259 0 0.056594
v  -0.0716613 0.012 0.0595249
v  -0.0716613 0 0.0595249
v  -0.0706088 0.012 0.062318
v  -0.0699418 0.0379999 0.0270764
v  -0.0706088 0 0.062318
v  0.00899988 0.00804198 0.0916897
v  -0.0199354 0 0.076
v  0.0199354 0 0.076
v  0.0559986 0 0.0722786
v  0.073609 0.0379999 0.0143771
v  0.0723661 0.0379999 0.0197
v  0.070735 0.0379999 0.0249291
v  0.07489 0.0379999 0.00404835
v  0.0722786 0 0.0559986
v  0.0697552 0.012 0.0638941
v  0.0642007 0.0379999 0.0387706
v  0.0611974 0.0379999 0.0433562
v  0.0668553 0.0379999 0.0339906
v  0.0507189 0.0379999 0.0552493
v  0.0546154 0.0379999 0.0514011
v  -0.0648929 0.012 0.0690989
v  -0.0415587 0.0379999 0.062433
v  -0.045997 0.0379999 0.0592387
v  -0.00899988 0.03 0.0915
v  0.00101763 0.0346208 -0.0751
v  -0.00583839 0.0379999 -0.0747721
v  -0.000911527 0.0379999 -0.0749944
v  -0.0722786 0.012 -0.0559986
v  -0.0738096 0.0379999 -0.0133091
v  -0.0718605 0.012 -0.0587534
v  -0.074942 0 -0.00294936
v  -0.074942 0 0.00294936
v  0.0655208 0.0379999 -0.0364966
v  0.0680064 0.0379999 -0.031623
v  0.0741522 0.0379999 -0.0112405
v  0.070135 0.0379999 -0.0265707
v  0.0638941 0 -0.0697552
v  0.0690989 0.012 -0.0648929
v  0.0681212 0 -0.0661509
v  0.0567516 0.0379999 -0.0490323
v  0.053033 0.0379999 -0.053033
v  0.0601696 0.0379999 -0.0447717
v  0.062318 0.012 -0.0706088
v  0.0559986 0 -0.0722786
v  0.056594 0.012 -0.0722259
v  0.0587534 0 -0.0718605
v  -0.0739826 0.0379999 0.0123101
v  -0.0730147 0.0379999 0.0171416
v  -0.0657872 0.0379999 0.0360138
v  -0.0680123 0.0379999 0.0316118
v  -0.0717299 0.0379999 0.021904
v  0.0710122 0.012 0.0614074
v  0.0718605 0 0.0587534
v  0.0710122 0 0.0614073
v  0.0697552 0 0.0638941
v  0.0681212 0.012 0.0661509
v  0.0582154 0.0379999 0.0472858
v  0.0638941 0.012 0.0697552
v  -0.02183 0.0379999 0.0754429
v  -0.0496121 0.0379999 0.0562459
v  -0.0690989 0.012 0.0648929
v  -0.0567553 0.0379999 0.0490285
v  -0.0601762 0.0379999 0.0447638
v  -0.0629871 0.0379999 0.0407138
v  0.0097 0.0276998 0.092
v  0.00869989 0.0286999 0.092
v  0.00933206 0.0284846 0.092
v  -0.00929433 0.00948632 0.0920004
v  -0.0104122 0.00858396 0.0920001
v  -0.0161215 0.0379999 -0.0732468
v  -0.0112793 0.0379999 -0.0741467
v  -0.0587534 0.012 -0.0718605
v  -0.0519076 0.0379999 -0.0541347
v  -0.0661509 0.012 -0.0681212
v  -0.0681212 0.012 -0.0661509
v  -0.0553513 0.0379999 -0.0506082
v  -0.0585579 0.0379999 -0.0468605
v  -0.0618182 0.0379999 -0.0424677
v  -0.0726427 0.0379999 -0.0186549
v  -0.0745246 0.0379999 -0.00842881
v  -0.0670998 0.0379999 -0.033505
v  -0.0710122 0.012 -0.0614073
v  -0.0693628 0.0379999 -0.0285272
v  -0.0644746 0.0379999 -0.0383145
v  -0.0697552 0.012 -0.0638941
v  0.0747313 0.0379999 -0.00634009
v  0.07173 0.0379999 -0.0219042
v  0.0629839 0.0379999 -0.0407185
v  0.0614073 0 -0.0710122
v  0.0476725 0.0379999 -0.0578989
v  0.043323 0.0379999 -0.0612217
v  0.0392087 0.0379999 -0.0639348
v  0.0148723 0.0379999 -0.0735106
v  0.0595249 0.012 -0.0716613
v  0.0689429 0.0379999 0.0295268
v  -0.0671751 0.012 0.0671751
v  -0.053033 0.0379999 0.053033
v  -0.0106927 0.0290702 0.0919925
v  -0.062318 0.012 0.0706088
v  0.00963968 0.0280635 0.092
v  -0.0595249 0 0.0716613
v  -0.056594 0 0.0722259
v  -0.00899988 0.00799996 0.0915
v  -0.0559986 0.012 -0.0722786
v  -0.047822 0.0379999 -0.0577753
v  -0.043921 0.0379999 -0.060794
v  -0.0710873 0.0379999 -0.0239072
v  -0.0749411 0.0379999 -0.00296897
v  -0.0722786 0 -0.0559986
v  0.0504115 0.0379999 -0.0555306
v  0.0349212 0.0379999 -0.0663736
v  0.0299893 0.0379999 -0.0687433
v  0.0201886 0.0379999 -0.0722314
v  -0.00869989 0.0286999 0.092
v  -0.00920814 0.0285801 0.092
v  -0.00963384 0.0280868 0.092
v  -0.062318 0 0.0706088
v  -0.0104999 0.00999993 0.092
v  0.00455707 0.0379999 -0.0748612
v  0.0014143 0.0372075 -0.0750747
v  0.0100095 0.0379999 -0.0743288
v  -0.0614073 0.012 -0.0710122
v  -0.0350929 0.0379999 -0.066283
v  -0.0306602 0.0379999 -0.0684466
v  -0.0261002 0.0379999 -0.0703119
v  -0.0209011 0.0379999 -0.0720285
v  0.0254088 0.0379999 -0.0705646
v  -0.0097 0.0276998 0.092
v  -0.039834 0.0379999 -0.0635472
v  -0.0638941 0.012 -0.0697552
v  0.0661509 0 0.0681212
v  0.0681212 0 0.0661509
v  0.0638941 0 0.0697552
v  -0.0681212 0 -0.0661509
v  -0.0661509 0 -0.0681212
v  -0.0587534 0 -0.0718605
v  -0.0697552 0 -0.0638941
v  -0.0710122 0 -0.0614073
v  -0.0718605 0 -0.0587534
v  -0.0648929 0 0.0690989
v  -0.0671751 0 0.0671751
v  -0.0614073 0 -0.0710122
v  -0.0690989 0 0.0648929
v  -0.0638941 0 -0.0697552

# 0 UV coordinates

# 226 vertex normals
vn 0.377937 -0.00893623 0.925788
vn 0.383735 0.679265 0.625577
vn -0.0501436 -0.00298238 -0.998738
vn 0.999999 -0.00116992 0
vn 0.998742 0.000849608 -0.0501438
vn 0.998705 0.00186235 -0.0508471
vn 0.988675 -0.00310308 -0.150037
vn 0.971688 0.184603 0.14746
vn 0.269519 -0.465122 0.843221
vn 0.382327 0 0.924027
vn 0 0.890209 0.455552
vn -0.0710912 0.866817 0.493532
vn 0.0085215 0.263014 0.964754
vn 0.41887 0.650453 0.633607
vn 0.482704 0.59474 0.642869
vn 0.0707432 0.868217 0.491116
vn 0.265652 0.769383 0.580929
vn 0 -0.00472516 -0.999989
vn -0.00632197 -0.00387257 -0.999973
vn 0.892452 -0.00423491 -0.451123
vn 0.98194 0.00413978 -0.189147
vn 0.95252 -0.00376201 -0.304454
vn 0.935761 0.00469786 -0.352603
vn 0.951161 0.248443 -0.183218
vn 0.644505 0.00527286 -0.764582
vn -0.998088 0.0184413 0.058984
vn -0.981949 0 0.189145
vn -0.981948 -9.39515e-07 0.189149
vn -0.836321 0.448613 0.31514
vn -0.935769 0 0.352614
vn -0.935772 -1.74567e-06 0.352607
vn 0 -0.88991 0.456135
vn 0.0498265 -0.874282 0.482854
vn 0.0828602 -0.833671 0.54601
vn 0.0861584 -0.829095 0.55243
vn 0.926766 0.307038 0.21641
vn 0.967064 0.201156 0.155961
vn 0.877406 0.394026 0.273683
vn 0.992682 0.080377 0.0901264
vn 0.999844 0.000859037 0.0176442
vn 0.998742 -8.23841e-05 0.0501438
vn 0.998739 0 0.0502039
vn 0.682711 0.577908 0.447133
vn 0.731019 0.548453 0.405969
vn 0.518288 0.606248 0.603192
vn 0.556926 0.609752 0.563947
vn -0.471288 0.590848 0.654818
vn -0.465843 0.587682 0.661528
vn -0.00335377 0.887649 0.460508
vn -0.00408584 0.862247 0.506472
vn -0.0254171 0.880912 0.472597
vn -0.00572282 -0.00343108 -0.999978
vn -0.0448775 0.0943547 -0.994527
vn -0.971635 0.184887 -0.147452
vn -1 -0.000851523 -0
vn -0.998726 0.000467465 0.0504628
vn -0.998721 0 0.0505672
vn 0.755237 0.530332 -0.385183
vn 0.952931 0.243797 -0.180237
vn 0.807266 0.482332 -0.340114
vn 0.83636 0.448536 -0.315148
vn 0.586447 -0.00451201 -0.809975
vn 0.862608 0.0050751 -0.505847
vn 0.716245 0.557296 -0.420017
vn 0.707099 -0.00460142 -0.707099
vn 0.809975 -0.00451201 -0.586447
vn 0.764582 0.00527286 -0.644505
vn 0.580706 0.609454 -0.539766
vn 0.623368 0.6011 -0.500091
vn 0.609834 0.603195 -0.514061
vn 0.505847 0.0050751 -0.862608
vn 0.150037 -0.00310308 -0.988675
vn 0.0501437 -0.00212425 -0.99874
vn 0.0523976 0.0017851 -0.998625
vn -0.980653 0.149328 0.126576
vn -0.951316 0.247829 0.183244
vn -0.946819 0.259916 0.189679
vn -0.75786 0.528107 0.383081
vn -0.804848 0.484751 0.342398
vn -0.904205 0.350582 0.243937
vn -0.85526 0.425568 0.295672
vn 0.872729 0.400667 0.278944
vn 0.759042 0.52596 0.383695
vn 0.952528 0 0.30445
vn 0.952526 -1.51225e-06 0.304456
vn 0.89246 -2.23727e-06 0.451127
vn 0.892455 0 0.451136
vn 0.59795 0.607337 0.523065
vn 0.560683 0.609319 0.560683
vn 0.639696 0.595938 0.485434
vn 0.654259 0.589533 0.473704
vn 0.438319 0.236597 0.867121
vn 0.465167 0.58583 0.663643
vn 0.473665 0.589624 0.654206
vn -0.263151 0.774334 0.575463
vn -0.412551 0.662131 0.625607
vn -0.508787 0.602844 0.614586
vn -0.623412 0.601084 0.500056
vn -0.66563 0.586096 0.461983
vn -0.711098 0.56113 0.423643
vn -0.716061 0.557614 0.419909
vn 0.00828934 0.000287037 0.999966
vn 0.00081819 0.0204877 0.99979
vn 0.00288653 0.0084759 0.99996
vn 2.54775e-05 7.48109e-05 1
vn -7.18981e-05 -0.000241197 1
vn -0.17738 0.239958 -0.95444
vn -0.560872 0.60897 -0.560872
vn -0.567137 0.609619 -0.553823
vn -0.604414 0.606004 -0.517149
vn -0.646262 0.593554 -0.479623
vn -0.93592 0.286913 -0.204292
vn -0.973828 0.176922 -0.142679
vn -0.78709 0.502445 -0.357825
vn -0.68975 0.574123 -0.441168
vn -0.65404 0.589904 -0.473545
vn -0.736068 0.544775 -0.401776
vn -0.759037 0.525975 -0.383684
vn 0.99865 0.00387144 -0.0517911
vn 0.984658 0.13003 -0.116365
vn 0.906591 0.346393 -0.241051
vn 0.857873 0.421995 -0.293211
vn 0.66551 0.586156 -0.46208
vn 0.708643 0.562586 -0.425819
vn 0.451123 -0.00423491 -0.892452
vn 0.514068 0.603179 -0.609843
vn 0.486967 0.597113 -0.637432
vn 0.420046 0.557211 -0.716294
vn 0.448954 0.578723 -0.680823
vn 0.183283 0.247096 -0.951499
vn 0.189147 0.00413978 -0.98194
vn 0.304454 -0.00376201 -0.95252
vn 0.352603 0.00469786 -0.935761
vn 0.779633 0.50914 0.364622
vn 0.826831 0.460967 0.322272
vn -0.542728 0.609521 0.577867
vn -0.513937 0.603449 0.609687
vn -0.580691 0.609454 0.539781
vn -0.609839 0.603187 0.514064
vn -0.465057 0.472977 0.748342
vn -0.461428 0.409795 0.786862
vn 0.00488937 0.00357169 0.999982
vn 0.00709683 0.00117731 0.999974
vn 0.000107184 7.8298e-05 1
vn 0.000545928 9.05685e-05 1
vn -0.118483 -0.779502 0.615092
vn -0.0500042 -0.872695 0.485699
vn -0.112164 -0.788776 0.604361
vn -0.00277776 -0.887818 0.460186
vn -0.00622213 -0.673204 0.739431
vn -0.00679451 -0.659836 0.751379
vn -0.113307 0.124055 -0.985785
vn -0.147481 0.183836 -0.97183
vn -0.0696481 0.0387688 -0.996818
vn -0.0521567 0 -0.998639
vn -0.490498 0.598008 -0.633875
vn -0.528119 0.608135 -0.592674
vn -0.83739 0.448413 -0.312575
vn -0.873026 0.399949 -0.279045
vn -0.88746 0.378613 -0.262806
vn -0.999977 2.0229e-05 -0.00675166
vn -0.995703 0.0529605 -0.075959
vn -0.998742 -2.26381e-06 -0.0501438
vn -0.998742 0 -0.0501454
vn 0.546809 0.609597 -0.573926
vn 0.52062 0.605331 -0.602104
vn 0.370844 0.516491 -0.771824
vn 0.412163 0.552337 -0.7246
vn 0.221975 0.315602 -0.922563
vn 0 0.00522149 0.999986
vn -0.000934974 0.0039702 0.999992
vn 0 7.29427e-05 1
vn -1.40932e-05 5.98453e-05 1
vn -0.00527424 0.00190425 0.999984
vn -0.00290412 0.00250566 0.999993
vn -5.71062e-05 1.77839e-05 1
vn -4.02542e-05 3.47307e-05 1
vn -0.381 -0.00349176 0.924568
vn -0.382681 0 0.923881
vn -0.377624 -0.0233331 0.925665
vn -0.345774 -0.195918 0.917637
vn 0.0239975 0.17024 -0.985111
vn -0.0114813 0.0673852 -0.997661
vn 0.00142688 0.0095709 -0.999953
vn 0.0620013 0.0229546 -0.997812
vn 0.0524848 0.00203156 -0.99862
vn 0.0502491 0.00207216 -0.998734
vn 0.162137 0.212564 -0.963602
vn 0.0967546 0.0932075 -0.990934
vn -0.374895 0.519138 -0.768082
vn -0.333278 0.474523 -0.814711
vn -0.232892 0.333155 -0.913657
vn -0.278972 0.400504 -0.872795
vn -0.285757 0.41136 -0.86552
vn 0.278492 0.402215 -0.872161
vn 0.32699 0.46559 -0.822377
vn 0.31511 0.448749 -0.83626
vn -0.00707102 0.000319553 0.999975
vn -0.00607759 0.00103927 0.999981
vn -0.000344002 1.5546e-05 1
vn -0.000277119 1.30539e-05 1
vn -9.94763e-05 1.70106e-05 1
vn -0.454464 0.581642 -0.674652
vn -0.473743 0.589442 -0.654313
vn -0.41535 0.556224 -0.719791
vn -0.3836 0.526273 -0.758872
vn 0.98868 0 0.150038
vn 0.707107 0 0.707107
vn 0.809983 0 0.586453
vn 0.586453 0 0.809983
vn 0.451127 0 0.89246
vn -0.707107 0 -0.707107
vn -0.150038 0 -0.98868
vn -0.809983 0 -0.586453
vn -0.89246 0 -0.451127
vn -0.98868 0 -0.150038
vn -0.952526 0 -0.304456
vn -0.644514 0 0.764592
vn -0.505854 0 0.862619
vn -0.304456 0 -0.952526
vn 0 1 0
vn 0 -1 0
vn -0.862619 0 0.505854
vn -0.764592 0 0.644514
vn -0.586453 0 -0.809983
vn -0.451127 0 -0.89246

# Mesh 'node_shape0.018' with 366 faces
g node_shape0.018
usemtl DefaultMaterial
f  1//1 2//1 3//1
f  4//2 5//2 2//2
f  6//3 7//3 8//3
f  9//4 10//4 11//4
f  10//5 12//5 11//5
f  11//6 12//6 13//6
f  13//7 12//7 14//7
f  15//8 16//8 17//8
f  18//9 1//9 3//9
f  19//10 2//10 1//10
f  20//11 5//11 21//11
f  22//12 20//12 23//12
f  22//13 2//13 5//13
f  24//14 4//14 2//14
f  24//15 25//15 26//15
f  27//16 21//16 5//16
f  27//17 5//17 4//17
f  28//18 29//18 8//18
f  7//19 28//19 8//19
f  30//20 31//20 32//20
f  33//21 13//21 14//21
f  33//22 14//22 32//22
f  33//23 32//23 31//23
f  33//24 34//24 13//24
f  35//25 36//25 37//25
f  38//26 39//26 40//26
f  38//27 41//27 42//27
f  43//28 42//27 41//27
f  42//29 44//29 45//29
f  44//30 42//30 46//30
f  43//31 46//30 42//30
f  47//32 48//32 49//32
f  49//33 50//33 47//33
f  18//34 47//34 50//34
f  47//35 18//35 3//35
f  51//36 52//36 17//36
f  51//37 17//37 16//37
f  17//38 52//38 53//38
f  16//39 15//39 54//39
f  54//40 9//40 11//40
f  54//41 55//41 9//41
f  54//42 15//42 55//42
f  56//43 57//43 58//43
f  57//44 56//44 59//44
f  25//45 60//45 26//45
f  60//46 25//46 61//46
f  62//47 63//47 64//47
f  62//48 22//48 63//48
f  5//49 20//49 65//49
f  65//50 22//50 5//50
f  22//51 65//51 20//51
f  66//52 28//52 7//52
f  7//53 67//53 68//53
f  69//54 70//54 71//54
f  72//55 73//55 40//55
f  73//56 38//56 40//56
f  73//57 41//57 38//57
f  74//58 75//58 31//58
f  76//59 13//59 34//59
f  77//60 31//60 75//60
f  77//61 33//61 31//61
f  36//62 78//62 37//62
f  79//63 31//63 30//63
f  79//64 74//64 31//64
f  36//65 35//65 80//65
f  80//66 79//66 30//66
f  80//67 35//67 79//67
f  81//68 35//68 82//68
f  83//69 79//69 81//69
f  81//70 79//70 35//70
f  37//71 78//71 84//71
f  85//72 86//72 87//72
f  29//73 28//73 85//73
f  85//74 28//74 86//74
f  88//75 39//75 38//75
f  42//76 88//76 38//76
f  88//77 42//77 89//77
f  90//78 91//78 44//78
f  91//79 45//79 44//79
f  42//80 92//80 89//80
f  92//81 42//81 45//81
f  17//82 53//82 93//82
f  93//83 59//83 56//83
f  93//84 94//84 17//84
f  93//84 95//85 94//84
f  93//86 96//86 95//86
f  93//86 56//87 96//86
f  97//88 98//88 61//88
f  97//89 61//89 25//89
f  58//90 98//90 97//90
f  97//91 56//91 58//91
f  19//92 99//92 2//92
f  99//93 24//93 2//93
f  24//94 99//94 25//94
f  100//95 22//95 23//95
f  100//96 63//96 22//96
f  101//97 62//97 64//97
f  102//98 103//98 104//98
f  102//99 104//99 105//99
f  102//100 105//100 90//100
f  102//101 90//101 44//101
f  106//102 3//102 2//102
f  107//103 2//103 22//103
f  107//104 108//104 2//104
f  3//105 108//105 107//105
f  109//106 110//106 3//106
f  111//107 112//107 113//107
f  114//108 115//108 116//108
f  114//109 116//109 117//109
f  116//110 118//110 117//110
f  118//111 116//111 119//111
f  120//112 71//112 70//112
f  69//113 121//113 70//113
f  122//114 123//114 124//114
f  125//115 119//115 126//115
f  126//116 119//116 116//116
f  126//117 122//117 125//117
f  126//118 123//118 122//118
f  11//119 13//119 127//119
f  127//120 13//120 76//120
f  33//121 128//121 34//121
f  77//122 128//122 33//122
f  129//123 79//123 83//123
f  79//124 129//124 74//124
f  130//125 84//125 78//125
f  131//126 35//126 37//126
f  131//127 37//127 132//127
f  84//128 133//128 37//128
f  133//129 132//129 37//129
f  134//130 135//130 86//130
f  86//131 135//131 87//131
f  135//132 130//132 87//132
f  84//133 130//133 135//133
f  93//134 136//134 59//134
f  136//135 93//135 53//135
f  137//136 101//136 138//136
f  137//137 62//137 101//137
f  137//138 138//138 103//138
f  102//139 137//139 103//139
f  139//140 22//140 62//140
f  62//141 140//141 139//141
f  141//142 2//142 108//142
f  141//143 106//143 2//143
f  141//144 108//144 3//144
f  106//145 141//145 3//145
f  142//146 143//146 110//146
f  144//147 143//147 48//147
f  110//148 143//148 144//148
f  47//149 144//149 48//149
f  144//150 47//150 3//150
f  3//151 110//151 144//151
f  145//152 112//152 67//152
f  145//153 113//153 112//153
f  145//154 67//154 7//154
f  7//155 6//155 145//155
f  146//156 147//156 115//156
f  146//157 115//157 114//157
f  123//158 148//158 124//158
f  148//159 123//159 71//159
f  71//160 120//160 148//160
f  149//161 72//161 40//161
f  149//162 121//162 69//162
f  149//163 150//163 72//163
f  149//163 69//164 150//163
f  35//165 151//165 82//165
f  131//166 151//166 35//166
f  152//167 84//167 153//167
f  152//168 133//168 84//168
f  154//169 135//169 134//169
f  155//170 107//170 22//170
f  155//171 22//171 156//171
f  107//172 155//172 3//172
f  155//173 156//173 3//173
f  157//174 22//174 139//174
f  157//175 156//175 22//175
f  157//176 109//176 3//176
f  3//177 156//177 157//177
f  139//178 158//178 159//178
f  158//179 139//179 140//179
f  158//180 110//180 159//180
f  158//181 142//181 110//181
f  68//182 160//182 161//182
f  161//183 7//183 68//183
f  161//184 66//184 7//184
f  161//185 160//185 86//185
f  161//186 86//186 28//186
f  28//187 66//187 161//187
f  162//188 134//188 86//188
f  162//189 86//189 160//189
f  163//190 164//190 165//190
f  165//191 166//191 163//191
f  111//192 113//192 167//192
f  163//193 167//193 113//193
f  167//194 163//194 166//194
f  154//195 168//195 135//195
f  84//196 168//196 153//196
f  135//197 168//197 84//197
f  169//198 139//198 159//198
f  169//199 157//199 139//199
f  159//200 110//200 169//200
f  110//201 109//201 169//201
f  109//202 157//202 169//202
f  147//203 170//203 171//203
f  171//204 115//204 147//204
f  170//205 164//205 171//205
f  164//206 163//206 171//206
f  15//207 94//207 55//207
f  17//207 94//207 15//207
f  97//208 172//208 173//208
f  25//208 172//208 97//208
f  97//209 173//209 96//209
f  97//209 96//209 56//209
f  99//210 174//210 172//210
f  99//210 172//210 25//210
f  99//211 1//211 174//211
f  99//211 19//211 1//211
f  175//212 116//212 176//212
f  176//212 116//212 115//212
f  145//213 6//213 177//213
f  145//213 177//213 113//213
f  178//214 116//214 175//214
f  178//214 126//214 116//214
f  178//215 123//215 126//215
f  178//215 179//215 123//215
f  150//216 69//216 180//216
f  180//216 69//216 71//216
f  179//217 180//217 123//217
f  71//217 123//217 180//217
f  181//218 62//218 182//218
f  137//218 182//218 62//218
f  158//219 62//219 181//219
f  158//219 140//219 62//219
f  163//220 177//220 183//220
f  163//220 113//220 177//220
f  168//221 76//221 34//221
f  168//221 61//221 98//221
f  168//221 51//221 16//221
f  168//221 162//221 160//221
f  121//221 168//221 70//221
f  168//221 154//221 134//221
f  168//221 57//221 59//221
f  91//221 168//221 45//221
f  20//221 168//221 23//221
f  138//221 168//221 103//221
f  104//221 168//221 105//221
f  168//221 4//221 24//221
f  168//221 119//221 125//221
f  168//221 27//221 4//221
f  168//221 118//221 119//221
f  81//221 168//221 83//221
f  168//221 133//221 152//221
f  168//221 132//221 133//221
f  54//221 168//221 16//221
f  168//221 60//221 61//221
f  168//221 20//221 21//221
f  168//221 24//221 26//221
f  21//221 27//221 168//221
f  168//221 92//221 45//221
f  168//221 67//221 112//221
f  101//221 168//221 138//221
f  168//221 127//221 76//221
f  168//221 128//221 77//221
f  168//221 131//221 132//221
f  168//221 63//221 100//221
f  168//221 90//221 105//221
f  168//221 40//221 39//221
f  88//221 168//221 39//221
f  52//221 51//221 168//221
f  168//221 53//221 52//221
f  168//221 54//221 11//221
f  57//221 168//221 58//221
f  60//221 168//221 26//221
f  168//221 98//221 58//221
f  168//221 64//221 63//221
f  168//221 68//221 67//221
f  168//221 170//221 147//221
f  168//221 120//221 70//221
f  168//221 75//221 74//221
f  122//221 168//221 125//221
f  168//221 77//221 75//221
f  168//221 81//221 82//221
f  168//221 74//221 129//221
f  168//221 136//221 53//221
f  168//221 104//221 103//221
f  168//221 88//221 89//221
f  168//221 91//221 90//221
f  92//221 168//221 89//221
f  168//221 100//221 23//221
f  168//221 101//221 64//221
f  168//221 112//221 111//221
f  168//221 114//221 117//221
f  168//221 146//221 114//221
f  118//221 168//221 117//221
f  168//221 164//221 170//221
f  168//221 148//221 120//221
f  168//221 122//221 124//221
f  127//221 168//221 11//221
f  128//221 168//221 34//221
f  168//221 129//221 83//221
f  149//221 168//221 121//221
f  168//221 151//221 131//221
f  136//221 168//221 59//221
f  168//221 160//221 68//221
f  168//221 166//221 165//221
f  147//221 146//221 168//221
f  168//221 165//221 164//221
f  148//221 168//221 124//221
f  168//221 149//221 40//221
f  151//221 168//221 82//221
f  168//221 152//221 153//221
f  168//221 167//221 166//221
f  162//221 168//221 134//221
f  167//221 168//221 111//221
f  184//222 32//222 14//222
f  184//222 173//222 172//222
f  9//222 55//222 184//222
f  41//222 73//222 184//222
f  143//222 142//222 184//222
f  36//222 80//222 184//222
f  184//222 18//222 50//222
f  55//222 94//222 184//222
f  12//222 10//222 184//222
f  8//222 29//222 184//222
f  184//222 14//222 12//222
f  46//222 43//222 184//222
f  184//222 50//222 49//222
f  184//222 6//222 8//222
f  176//222 185//222 184//222
f  184//222 10//222 9//222
f  184//222 72//222 150//222
f  184//222 73//222 72//222
f  48//222 184//222 49//222
f  29//222 85//222 184//222
f  184//222 1//222 18//222
f  94//222 95//222 184//222
f  184//222 48//222 143//222
f  172//222 174//222 184//222
f  30//222 32//222 184//222
f  184//222 78//222 36//222
f  184//222 180//222 179//222
f  184//222 95//222 96//222
f  96//222 173//222 184//222
f  184//222 174//222 1//222
f  179//222 178//222 184//222
f  184//222 80//222 30//222
f  184//222 85//222 87//222
f  184//222 43//222 41//222
f  184//222 130//222 78//222
f  175//222 176//222 184//222
f  183//222 177//222 184//222
f  87//222 130//222 184//222
f  142//222 158//222 184//222
f  184//222 185//222 183//222
f  184//222 177//222 6//222
f  184//222 178//222 175//222
f  150//222 180//222 184//222
f  181//222 182//222 184//222
f  184//222 158//222 181//222
f  44//223 46//223 184//223
f  184//223 102//223 44//223
f  184//224 182//224 137//224
f  184//224 137//224 102//224
f  171//225 176//225 115//225
f  171//225 185//225 176//225
f  171//226 183//226 185//226
f  171//226 163//226 183//226

